<?xml version="1.0" encoding="iso-8859-1"?><svg xmlns="http://www.w3.org/2000/svg" xmlns:xlink="http://www.w3.org/1999/xlink"><symbol viewBox="0 0 384 384" id="del" xmlns="http://www.w3.org/2000/svg"><path d="M64 341.333C64 364.907 83.093 384 106.667 384h170.667C300.907 384 320 364.907 320 341.333v-256H64v256zM266.667 21.333L245.333 0H138.667l-21.334 21.333H42.667V64h298.666V21.333z"/></symbol><symbol viewBox="0 0 383.947 383.947" id="edit" xmlns="http://www.w3.org/2000/svg"><path d="M0 303.947v80h80l236.053-236.054-80-80zM377.707 56.053L327.893 6.24c-8.32-8.32-21.867-8.32-30.187 0l-39.04 39.04 80 80 39.04-39.04c8.321-8.32 8.321-21.867.001-30.187z"/></symbol><symbol viewBox="0 0 515.558 515.558" id="search" xmlns="http://www.w3.org/2000/svg"><path d="M378.344 332.78c25.37-34.645 40.545-77.2 40.545-123.333C418.889 93.963 324.928.002 209.444.002S0 93.963 0 209.447s93.961 209.445 209.445 209.445c46.133 0 88.692-15.177 123.337-40.547l137.212 137.212 45.564-45.564L378.344 332.78zm-168.899 21.667c-79.958 0-145-65.042-145-145s65.042-145 145-145 145 65.042 145 145-65.043 145-145 145z"/></symbol></svg>